<svg width="389" height="355" viewBox="0 0 389 355" fill="none" xmlns="http://www.w3.org/2000/svg">
<path d="M56.0507 144.196L64.8513 137.127C64.8513 137.127 107.441 181.253 104.308 186.251C101.175 191.249 95.5076 193.32 95.5076 193.32C84.808 169.767 73.3506 161.626 56.0507 144.196Z" fill="white"/>
<path d="M45.1632 157.039C63.0418 178.206 84.2388 170.655 84.2388 170.655C84.2388 170.655 76.7384 159.457 71.1529 152.666C67.1786 147.834 61.6146 141.14 61.2172 140.743C60.8198 140.346 69.0577 146.088 73.9348 150.679C80.6911 157.037 88.8745 167.078 88.8745 167.078C88.8745 167.078 94.4385 148.399 80.5369 132.211C66.5456 115.918 39.1078 116.336 34.0474 116.56C33.5731 116.581 33.1953 116.929 33.1556 117.402C32.8042 121.583 31.9424 141.387 45.1632 157.039Z" fill="#598643" stroke="white" stroke-width="3"/>
<path d="M25.4148 195.435L27.9658 188.201C27.9658 188.201 68.6766 193.792 68.667 197.654C68.6573 201.516 66.116 204.888 66.116 204.888C51.3738 197.022 41.7725 197.45 25.4148 195.435Z" fill="white"/>
<path d="M23.7428 206.509C41.7898 210.226 51.3649 197.713 51.3649 197.713C51.3649 197.713 42.9544 194.952 37.2517 193.698C33.1942 192.806 27.5394 191.594 27.1647 191.549C26.79 191.505 33.6533 191.139 38.1477 191.54C44.3737 192.094 52.7617 193.978 52.7617 193.978C52.7617 193.978 49.229 182.04 35.2944 179.289C21.5343 176.573 6.08241 187.446 2.8055 189.906C2.42799 190.189 2.32505 190.684 2.56379 191.091C4.17326 193.836 10.8366 203.851 23.7428 206.509Z" fill="#598643" stroke="white" stroke-width="3"/>
<rect x="56.5" y="180.122" width="330.029" height="173" rx="39.5" fill="#295C3D" stroke="white" stroke-width="3"/>
<rect x="55" y="262.622" width="333.029" height="8" fill="white"/>
<rect x="197" y="239.622" width="50.8517" height="53" rx="7" fill="white"/>
<rect x="207" y="251.622" width="30.9099" height="30" fill="#295C3D"/>
<path d="M160 129H288.5C298.717 129 307 137.283 307 147.5V180H287.592V159.208C287.592 152.857 282.443 147.708 276.092 147.708H174.5C168.149 147.708 163 152.857 163 159.208V180H141.5V147.5C141.5 137.283 149.783 129 160 129Z" fill="#295C3D" stroke="white" stroke-width="3"/>
<path d="M164 113.5C164 140.811 199.553 169.5 199.553 169.5C199.553 169.5 170.53 127.016 184.437 105.286L184.656 104.944C195.69 87.7044 209.984 65.3718 207.5 46C205.811 32.8294 184.437 19.5 184.437 19.5C184.437 19.5 199.553 39.5 191.751 56.6237C181.101 80 164 86.189 164 113.5Z" fill="#DCCEB4"/>
<path d="M204.5 118.5C197.662 149.5 225.5 179 225.5 179C225.5 179 216 152.5 228.5 126.5C238.356 106 267.413 84 258.5 43C253.283 19 224 0 224 0C224 0 245.447 35 234 57C220.621 82.7139 211.338 87.5 204.5 118.5Z" fill="#DCCEB4"/>
<path d="M249 131C245.529 160.5 262.5 175 262.5 175C262.5 175 256 138 274.5 122.5C293 107 308 84.5 296.5 48C292.336 34.7851 265.5 17.5 265.5 17.5C265.5 17.5 289.247 56.1985 280.5 72.5C269.5 93 252.47 101.5 249 131Z" fill="#DCCEB4"/>
</svg>
